<svg width="130" height="163" viewBox="0 0 130 163" fill="none" xmlns="http://www.w3.org/2000/svg">
<path d="M7.5 61.6697V130.195C7.5 131.996 8.60516 133.613 10.2835 134.267L62.4879 154.612C63.5001 155.006 64.623 155.01 65.6375 154.621L118.833 134.257C120.524 133.61 121.641 131.986 121.641 130.175V61.6888C121.641 59.8651 120.509 58.2331 118.8 57.5947L65.6046 37.715C64.6097 37.3432 63.5133 37.3464 62.5206 37.7241L10.3165 57.5848C8.62082 58.2299 7.5 59.8555 7.5 61.6697Z" fill="white"/>
<path d="M60.5654 32.583C62.8078 31.7301 65.2838 31.724 67.5303 32.5635L120.726 52.4424C124.584 53.8842 127.141 57.5702 127.141 61.6885V130.175C127.141 134.265 124.618 137.931 120.799 139.394L67.6035 159.758C65.3127 160.635 62.7765 160.627 60.4902 159.736L8.28613 139.391C4.49604 137.913 2.00005 134.262 2 130.194V61.6689L2.00781 61.2861C2.16016 57.3444 4.65189 53.8556 8.36133 52.4443L60.5654 32.583ZM13 62.4473V129.422L64.0791 149.328L116.141 129.398V62.4717L64.0771 43.0156L13 62.4473Z" fill="black" stroke="white" stroke-width="4"/>
<path d="M51.5976 55.0947C55.9025 53.5279 62.0331 53.4888 65.2899 55.0075C67.468 56.0232 67.8067 57.4781 66.5056 58.7993C66.2805 59.0278 66.4697 59.3108 66.9971 59.4597L83.5837 64.1429C84.2466 64.3301 84.3533 64.7142 83.7984 64.9161L71.4216 69.4209C70.8629 69.6243 69.9438 69.5305 69.5795 69.233L60.5885 61.8902C60.2915 61.6478 59.6056 61.534 59.0156 61.6073C55.572 62.0356 51.9508 61.7308 49.7005 60.6816C46.4437 59.1629 47.293 56.6616 51.5976 55.0947Z" fill="black"/>
<path d="M7.29122 131.72L60.4115 153.555C61.5402 154.019 62.7797 153.194 62.7866 151.973L63.1818 81.5455C63.1858 80.8291 62.7456 80.1852 62.0767 79.9289L8.95652 59.5744C7.83357 59.1441 6.62682 59.969 6.61992 61.1715L6.22462 130.119C6.2206 130.82 6.64256 131.454 7.29122 131.72Z" fill="black"/>
<path d="M62.7725 154.824L63.3023 82.6898L119.775 61.1436" stroke="black" stroke-width="7"/>
<path fill-rule="evenodd" clip-rule="evenodd" d="M101.738 83.9572C103.585 84.295 105.033 85.3247 106.084 87.045C107.17 88.751 107.713 91.1414 107.713 94.2163C107.713 97.1206 107.206 99.8838 106.192 102.506C105.214 105.07 103.784 107.323 101.901 109.263C101.443 109.741 101.433 110.556 101.882 111.219L109.651 122.716C109.965 123.182 109.604 124.092 109.012 124.326L101.401 127.335C101.138 127.439 100.894 127.373 100.757 127.163L93.8232 116.491C93.3223 115.72 92.4246 115.325 91.6777 115.548L87.887 116.676C87.4477 116.807 87.0712 117.364 87.0712 117.883V132.177C87.071 132.666 86.7337 133.197 86.3177 133.361L79.7847 135.943C79.3686 136.107 79.0313 135.844 79.0312 135.354V92.1538C79.0313 91.664 79.3687 91.1338 79.7847 90.9692L95.3278 84.8254C97.7541 83.8664 99.8912 83.5768 101.738 83.9572ZM97.9352 95.1789C96.9937 94.3553 95.6715 94.2802 93.9694 94.953L87.6933 97.6578C87.2864 97.8333 86.9621 98.3538 86.9619 98.8331V108.002C86.9619 108.492 87.2994 108.756 87.7154 108.592L93.9694 106.119C95.1281 105.661 96.1061 105.04 96.9028 104.256C97.6995 103.471 98.2971 102.508 98.6954 101.369C99.13 100.215 99.3473 98.8897 99.3473 97.3948C99.3473 95.6866 98.8768 95.9599 97.9352 95.1789Z" fill="black"/>
<path d="M34.5167 130.749C30.3411 129.312 26.9012 127.012 24.197 123.852C21.8804 121.08 20.3605 118.041 19.6372 114.737C19.4456 113.861 19.9083 113.218 20.6537 113.202L25.1544 113.102C26.0948 113.081 27.0941 114.057 27.4716 115.161C27.8761 116.344 28.4548 117.503 29.2077 118.638C30.4405 120.45 32.1903 121.747 34.457 122.527C35.9284 123.034 37.0817 123.01 37.9168 122.457C38.7917 121.917 39.4279 121.042 39.8256 119.833C40.2233 118.582 40.4221 117.179 40.4221 115.623V89.5846C40.4221 88.6342 41.1506 88.1146 42.0493 88.424L47.5041 90.3023C48.4027 90.6117 49.1312 91.633 49.1312 92.5834V118.558C49.1312 123.942 47.978 127.772 45.6714 130.048C43.3649 132.282 39.6467 132.516 34.5167 130.749Z" fill="white"/>
<path d="M71.0674 2C79.2296 2 85.8467 8.6171 85.8467 16.7793L85.8418 17.1611C85.6391 25.1468 79.1017 31.5576 71.0674 31.5576H65.3779V32.4102H67.8145C70.8857 32.4105 73.3756 34.9004 73.376 37.9717V41.9824C73.376 44.9584 71.0389 47.388 68.1006 47.5371L67.8145 47.5439H65.3779V50.667L65.3682 51.0449C65.1714 54.9246 61.9638 58.0098 58.0352 58.0098C53.9799 58.0097 50.6925 54.7222 50.6924 50.667V31.5576H46.0273C37.8654 31.5576 31.2483 24.9414 31.248 16.7793C31.248 8.6171 37.8651 2 46.0273 2H71.0674ZM47.3828 14.8955C46.3428 14.8955 45.4992 15.7389 45.499 16.7793C45.499 17.8197 46.3425 18.6631 47.3828 18.6631H69.7109C70.7513 18.6631 71.5947 17.8197 71.5947 16.7793C71.5946 15.7389 70.751 14.8955 69.7109 14.8955H47.3828Z" fill="black" stroke="white" stroke-width="4"/>
</svg>
