<svg width="433" height="156" viewBox="0 0 433 156" fill="none" xmlns="http://www.w3.org/2000/svg">
<path d="M61.2893 52.0078C63.4673 53.0235 63.8061 54.4777 62.5052 55.7988C62.2801 56.0273 62.4692 56.311 62.9964 56.46L79.5833 61.1426C80.2462 61.3298 80.3529 61.714 79.7981 61.916L67.4212 66.4209C66.8627 66.6241 65.9439 66.5307 65.5794 66.2334L56.5882 58.8906C56.2913 58.6481 55.6049 58.534 55.0149 58.6074C51.5716 59.0356 47.9507 58.7308 45.7005 57.6816C42.5517 56.2134 43.2405 53.8257 47.18 52.2529C48.8014 54.2403 51.2696 55.5096 54.0344 55.5098C56.9424 55.5098 59.5214 54.1051 61.1331 51.9385C61.1857 51.9616 61.2381 51.9839 61.2893 52.0078Z" fill="black"/>
<path d="M117.022 61.4141L62.7842 82.1064L62.2725 151.851L55.2725 151.799L55.8203 77.2725L114.527 54.873L117.022 61.4141Z" fill="black"/>
<path d="M97.7381 80.9572C99.5849 81.295 101.033 82.3247 102.084 84.045C103.17 85.751 103.713 88.1414 103.713 91.2163C103.713 94.1206 103.206 96.8838 102.192 99.5055C101.214 102.07 99.7842 104.323 97.9011 106.263C97.4425 106.741 97.4335 107.556 97.8815 108.219L105.651 119.716C105.965 120.182 105.604 121.092 105.012 121.326L97.4007 124.335C97.1377 124.439 96.8941 124.373 96.7574 124.163L89.8232 113.491C89.3223 112.72 88.4246 112.325 87.6777 112.548L83.887 113.676C83.4477 113.807 83.0712 114.364 83.0712 114.883V129.177C83.071 129.666 82.7337 130.197 82.3177 130.361L75.7847 132.943C75.3686 133.107 75.0313 132.844 75.0312 132.354V89.1538C75.0313 88.664 75.3687 88.1338 75.7847 87.9692L91.3278 81.8254C93.7541 80.8664 95.8912 80.5768 97.7381 80.9572ZM93.9352 92.1789C92.9937 91.3553 91.6715 91.2802 89.9694 91.953L83.6933 94.6578C83.2864 94.8333 82.9621 95.3538 82.9619 95.8331V105.002C82.9619 105.492 83.2994 105.756 83.7154 105.592L89.9694 103.119C91.1281 102.661 92.1061 102.04 92.9028 101.256C93.6995 100.471 94.2971 99.5084 94.6954 98.3687C95.13 97.2146 95.3473 95.8897 95.3473 94.3948C95.3473 92.6866 94.8768 92.9599 93.9352 92.1789Z" fill="black"/>
<path d="M2.62014 58.1721C2.62704 56.9696 3.83411 56.1442 4.95706 56.5744L58.0772 76.9289C58.746 77.1853 59.1857 77.8298 59.1817 78.5461L58.7871 148.974C58.7801 150.194 57.5397 151.02 56.4112 150.556L3.29104 128.721C2.64252 128.454 2.22071 127.82 2.22464 127.119L2.62014 58.1721ZM38.0489 85.424C37.1504 85.1149 36.4219 85.6349 36.4219 86.5851V112.623C36.4219 114.179 36.2228 115.582 35.8252 116.833C35.4276 118.042 34.7919 118.917 33.917 119.457C33.0819 120.011 31.9285 120.034 30.4571 119.527C28.1903 118.747 26.4408 117.45 25.208 115.638C24.4551 114.503 23.8762 113.344 23.4717 112.161C23.0942 111.057 22.0947 110.082 21.1543 110.103L16.6533 110.201C15.9083 110.218 15.4454 110.861 15.6367 111.736C16.36 115.041 17.8807 118.08 20.1973 120.853C22.9014 124.013 26.3412 126.311 30.5166 127.749C35.6466 129.516 39.3654 129.282 41.6719 127.048C43.9783 124.772 45.1309 120.942 45.1309 115.559V89.5832C45.1307 88.6329 44.4024 87.6123 43.5039 87.3029L38.0489 85.424Z" fill="black"/>
<path d="M116.025 51.3164C119.102 52.466 121.141 55.4045 121.141 58.6885V127.176C121.14 130.437 119.129 133.36 116.084 134.525L62.8887 154.89C61.0617 155.589 59.0396 155.583 57.2168 154.873L5.0127 134.528C1.99031 133.35 7.80153e-05 130.438 0 127.194V58.6699C0 55.4028 2.01873 52.4752 5.07227 51.3135L45.1924 36.0498V43.5391L7.56055 57.8564C7.22312 57.9851 7 58.3088 7 58.6699V127.194C7.00008 127.553 7.22044 127.876 7.55469 128.006L59.7588 148.351C59.9602 148.429 60.1838 148.43 60.3857 148.353L113.582 127.988C113.918 127.859 114.14 127.536 114.141 127.176V58.6885C114.141 58.3254 113.915 58.0002 113.575 57.873L69.9053 41.5527C70.5208 40.505 70.876 39.2856 70.876 37.9824V34.4434L116.025 51.3164Z" fill="black"/>
<path fill-rule="evenodd" clip-rule="evenodd" d="M67.0674 0C74.125 0 79.8467 5.72167 79.8467 12.7793C79.8465 19.8368 74.1249 25.5576 67.0674 25.5576H59.3779V30.4102H63.8145C65.7813 30.4104 67.3758 32.0048 67.376 33.9717V37.9824C67.376 39.9495 65.7815 41.5437 63.8145 41.5439H59.3779V46.667C59.3779 49.6177 56.9859 52.0098 54.0352 52.0098C51.0844 52.0097 48.6924 49.6177 48.6924 46.667V25.5576H42.0273C34.9698 25.5576 29.2482 19.8368 29.248 12.7793C29.248 5.72167 34.9697 0 42.0273 0H67.0674ZM43.3828 8.89551C41.238 8.89551 39.4992 10.6345 39.499 12.7793C39.499 14.9242 41.2379 16.6631 43.3828 16.6631H65.7109C67.8559 16.6631 69.5947 14.9242 69.5947 12.7793C69.5946 10.6345 67.8558 8.89551 65.7109 8.89551H43.3828Z" fill="black"/>
<path d="M224.663 101.633C224.663 103.131 223.796 103.998 222.298 103.998H165.687C164.189 103.998 163.322 103.131 163.322 101.633V55.982C163.322 55.2724 163.164 54.7994 162.77 54.0898L162.139 53.0648C161.114 51.4879 161.824 50.2264 163.716 50.2264H222.298C223.796 50.2264 224.663 51.0937 224.663 52.5917V55.0359C224.663 56.534 223.796 57.4013 222.298 57.4013H177.12C176.095 57.4013 175.543 57.9532 175.543 58.9781V95.1678C175.543 96.1928 176.095 96.7447 177.12 96.7447H222.298C223.796 96.7447 224.663 97.612 224.663 99.11V101.633ZM180.037 95.0101C178.46 95.0101 177.672 94.1428 177.751 92.5659L179.879 62.5262C179.958 61.1069 180.826 60.3185 182.245 60.2397L219.144 59.057C220.642 58.9781 221.509 59.8454 221.509 61.3435V63.5511C221.509 65.0492 220.721 65.9165 219.223 65.9953L194.466 66.7838C193.52 66.7838 192.889 67.3357 192.81 68.3607L192.652 70.4106C192.573 71.5144 193.125 72.0663 194.15 72.0663H220.957C222.456 72.0663 223.323 72.9336 223.323 74.4317V76.5605C223.323 78.0585 222.456 78.9258 220.957 78.9258H217.804C216.779 78.9258 216.227 79.4777 216.227 80.5027V92.7236C216.227 94.2217 215.36 95.089 213.861 95.089H204.873C203.375 95.089 202.508 94.2217 202.508 92.7236V80.5027C202.508 79.4777 201.956 78.9258 200.931 78.9258H193.362C192.416 78.9258 191.785 79.4777 191.706 80.4239L190.681 92.7236C190.523 94.1428 189.735 95.0101 188.237 95.0101H180.037ZM252.647 50.6206C251.858 49.5168 252.805 48.6495 254.776 48.6495H268.022C269.835 48.6495 270.545 49.7533 269.756 51.4091L265.656 59.6877C265.262 60.3973 265.262 61.0281 265.735 61.8165L291.123 102.579C292.148 104.156 291.36 105.418 289.467 105.418H279.769C278.508 105.418 277.562 104.945 276.931 103.841L259.743 75.6144C259.112 74.5105 258.087 74.5105 257.535 75.6932L243.58 103.683C243.028 104.866 242.082 105.418 240.82 105.418H230.886C229.072 105.418 228.363 104.314 229.151 102.658L253.593 53.7744C253.987 52.986 253.908 52.2764 253.356 51.5668L252.647 50.6206ZM295.217 85.4699C295.217 83.9719 296.084 83.1046 297.582 83.1046H319.107C320.132 83.1046 320.684 82.7892 320.684 82.1585C320.684 80.8181 321.393 79.872 322.655 79.4777L331.722 76.6393C333.062 76.2451 332.904 74.9048 331.485 74.9048H305.072C303.574 74.9048 302.707 74.0375 302.707 72.5394V69.7799C302.707 68.2818 303.574 67.4145 305.072 67.4145H352.773C354.271 67.4145 355.139 68.2818 355.139 69.7799V74.274C355.139 75.6144 354.508 76.4816 353.246 76.9547L340.789 81.2912C339.37 81.7642 339.606 83.1046 341.104 83.1046H358.766C360.264 83.1046 361.131 83.9719 361.131 85.4699V88.2295C361.131 89.7275 360.264 90.5948 358.766 90.5948H337.241C336.216 90.5948 335.664 91.1467 335.664 92.1717V100.214C335.585 103.289 333.378 105.418 330.303 105.418H318.476C316.505 105.418 315.874 104.077 317.136 102.5L319.974 99.0312C320.447 98.4004 320.684 97.8485 320.684 97.0601V92.1717C320.684 91.1467 320.132 90.5948 319.107 90.5948H297.582C296.084 90.5948 295.217 89.7275 295.217 88.2295V85.4699ZM341.183 50.6995C341.499 49.2803 342.366 48.6495 343.785 48.6495H353.956C355.612 48.6495 356.4 49.6745 356.006 51.2514L355.612 52.9071C355.375 53.9321 355.848 54.6417 356.952 54.6417H357.267C358.766 54.6417 359.633 55.509 359.633 57.007V62.7627C359.633 64.2607 358.766 65.128 357.267 65.128H345.52C344.022 65.128 343.154 64.5761 343.154 63.63C343.154 62.6838 342.602 62.1319 341.577 62.1319H314.77C313.745 62.1319 313.193 62.3685 313.193 62.7627C313.193 64.2607 312.326 65.128 310.828 65.128H299.08C297.582 65.128 296.715 64.2607 296.715 62.7627V57.007C296.715 55.509 297.582 54.6417 299.001 54.6417H299.474C300.578 54.6417 301.051 53.9321 300.815 52.9071L300.421 51.2514C300.026 49.5956 300.815 48.6495 302.47 48.6495H312.563C313.982 48.6495 314.928 49.3591 315.243 50.6995L315.953 53.3013C316.189 54.1686 316.741 54.6417 317.687 54.6417H318.87C319.974 54.6417 320.447 53.9321 320.21 52.9071L319.816 51.2514C319.422 49.6745 320.21 48.6495 321.866 48.6495H332.037C333.456 48.6495 334.324 49.2803 334.639 50.6995L335.349 53.3013C335.585 54.1686 336.137 54.6417 337.083 54.6417H338.739C339.685 54.6417 340.237 54.1686 340.474 53.3013L341.183 50.6995ZM377.367 59.5301C377.524 58.5051 377.051 57.8743 376.026 57.8743H375.947C374.922 57.8743 374.371 58.4262 374.371 59.4512V102.816C374.371 104.314 373.503 105.181 372.005 105.181H366.407C364.909 105.181 364.042 104.314 364.042 102.816V52.5129C364.042 51.0148 364.909 50.1475 366.407 50.1475H384.62C386.118 50.1475 386.986 51.0148 386.986 52.5129V57.7955L385.488 67.9664C385.33 68.9914 385.409 69.6222 385.488 69.6222H385.645C387.143 69.6222 387.932 70.4106 388.09 71.9087L388.326 74.9836C388.405 76.0874 388.484 76.7182 388.405 77.822L387.143 94.3005C387.065 95.7986 386.197 96.587 384.699 96.587H378.392C376.894 96.587 376.026 95.7197 376.026 94.2217V92.2506C376.026 90.7525 376.499 89.8852 377.209 89.8852C377.919 89.8852 378.392 89.3333 378.47 88.3872L379.259 78.0585C379.338 76.9547 378.944 76.4028 378.234 76.4028C376.736 76.4028 375.869 75.5355 375.869 74.0375V69.6222L377.367 59.5301ZM428.3 102.816C428.3 104.314 427.433 105.181 425.935 105.181H413.951C412.453 105.181 411.585 104.393 411.585 102.816L411.506 85.943C411.506 84.918 410.954 84.3661 409.929 84.3661H408.747C407.88 84.3661 407.249 84.8392 407.012 85.7065L401.651 103.21C401.257 104.55 400.31 105.181 398.97 105.181H392.505C390.849 105.181 390.061 104.077 390.534 102.5L395.501 86.1795C395.816 85.1545 395.264 84.3661 394.161 84.3661H391.953C390.455 84.3661 389.588 83.4988 389.588 82.0008V79.2412C389.588 77.7432 390.455 76.8759 391.953 76.8759H426.014C427.512 76.8759 428.379 77.7432 428.379 79.2412V82.0008C428.379 83.4988 427.512 84.3661 426.014 84.3661H424.2C423.175 84.3661 422.623 84.918 422.623 85.943L422.702 94.8524C422.702 95.8774 422.86 96.4293 423.097 96.4293C423.333 96.4293 423.727 96.1928 424.279 95.562L425.383 94.4582C426.802 92.9602 428.3 93.5121 428.3 95.6409V102.816ZM419.312 64.5761C417.814 64.5761 416.947 63.8665 416.947 62.6838V62.3685C416.947 61.3435 416.395 60.7916 415.37 60.7916H402.755C401.73 60.7916 401.178 61.2646 401.178 62.2108C401.178 63.7088 400.31 64.5761 398.812 64.5761H391.874C390.376 64.5761 389.509 63.7088 389.509 62.2108V55.7455C389.509 54.2475 390.376 53.3802 391.874 53.3802H399.916C400.941 53.3802 401.493 52.986 401.493 52.5129C401.493 51.961 401.493 51.6456 401.493 51.6456H401.414C399.916 50.1475 400.468 48.7283 402.597 48.7283H411.979C413.477 48.7283 414.345 49.5168 414.345 51.0148V51.8033C414.345 52.8283 414.897 53.3802 415.922 53.3802H425.935C427.433 53.3802 428.3 54.2475 428.3 55.7455V62.2108C428.3 63.7088 427.433 64.5761 425.935 64.5761H419.312ZM392.426 68.676C392.426 67.178 393.293 66.3107 394.791 66.3107H423.175C424.673 66.3107 425.541 67.178 425.541 68.676V71.4356C425.541 72.9336 424.673 73.8009 423.175 73.8009H394.791C393.293 73.8009 392.426 72.9336 392.426 71.4356V68.676Z" fill="black"/>
<path d="M169.394 129.41V116.735H173.835V129.41C173.835 130.645 173.551 131.715 172.984 132.62C172.426 133.525 171.665 134.227 170.701 134.726C169.745 135.216 168.671 135.462 167.478 135.462C166.243 135.462 165.144 135.255 164.179 134.84C163.224 134.426 162.471 133.787 161.921 132.924C161.38 132.062 161.109 130.962 161.109 129.626H165.575C165.575 130.251 165.647 130.742 165.791 131.097C165.935 131.444 166.146 131.689 166.425 131.833C166.713 131.968 167.064 132.036 167.478 132.036C167.884 132.036 168.227 131.935 168.506 131.732C168.793 131.52 169.013 131.22 169.166 130.831C169.318 130.433 169.394 129.96 169.394 129.41ZM188.616 116.735H195.886C197.307 116.735 198.542 116.947 199.591 117.37C200.64 117.792 201.448 118.418 202.014 119.247C202.589 120.076 202.877 121.1 202.877 122.318C202.877 123.375 202.712 124.259 202.382 124.969C202.052 125.68 201.591 126.268 200.999 126.733C200.416 127.19 199.735 127.566 198.957 127.862L197.498 128.687H191.395L191.37 125.248H195.886C196.453 125.248 196.922 125.147 197.295 124.944C197.667 124.741 197.946 124.453 198.132 124.081C198.326 123.701 198.424 123.248 198.424 122.724C198.424 122.191 198.326 121.734 198.132 121.353C197.937 120.973 197.65 120.681 197.269 120.478C196.897 120.275 196.436 120.173 195.886 120.173H193.07V135.208H188.616V116.735ZM198.728 135.208L194.643 127.037L199.363 127.012L203.499 135.018V135.208H198.728ZM243.771 120.617L239.267 135.208H234.483L241.271 116.735H244.303L243.771 120.617ZM247.501 135.208L242.984 120.617L242.4 116.735H245.471L252.296 135.208H247.501ZM247.323 128.319V131.757H237.846V128.319H247.323ZM275.833 128.953H280.273C280.214 130.239 279.867 131.372 279.233 132.353C278.598 133.335 277.719 134.1 276.594 134.65C275.477 135.191 274.158 135.462 272.635 135.462C271.4 135.462 270.297 135.255 269.324 134.84C268.36 134.426 267.539 133.829 266.863 133.051C266.194 132.273 265.683 131.33 265.327 130.222C264.981 129.114 264.807 127.866 264.807 126.479V125.477C264.807 124.09 264.989 122.842 265.353 121.734C265.725 120.617 266.249 119.67 266.926 118.892C267.611 118.105 268.432 117.505 269.387 117.09C270.343 116.676 271.405 116.469 272.572 116.469C274.179 116.469 275.537 116.756 276.645 117.331C277.753 117.907 278.611 118.697 279.22 119.704C279.829 120.702 280.189 121.84 280.299 123.117H275.858C275.841 122.423 275.723 121.844 275.503 121.379C275.283 120.905 274.936 120.55 274.462 120.313C273.989 120.076 273.359 119.958 272.572 119.958C272.022 119.958 271.544 120.059 271.138 120.262C270.732 120.465 270.394 120.787 270.123 121.226C269.853 121.666 269.65 122.237 269.514 122.939C269.387 123.633 269.324 124.47 269.324 125.451V126.479C269.324 127.46 269.383 128.298 269.502 128.991C269.62 129.685 269.81 130.251 270.073 130.691C270.335 131.131 270.673 131.457 271.088 131.668C271.51 131.871 272.026 131.973 272.635 131.973C273.312 131.973 273.883 131.867 274.348 131.656C274.813 131.436 275.173 131.106 275.427 130.666C275.68 130.218 275.816 129.647 275.833 128.953ZM302.16 120.617L297.656 135.208H292.873L299.661 116.735H302.693L302.16 120.617ZM305.89 135.208L301.373 120.617L300.79 116.735H303.86L310.686 135.208H305.89ZM305.712 128.319V131.757H296.235V128.319H305.712ZM329.997 135.208H325.899L325.925 131.782H329.997C330.843 131.782 331.558 131.579 332.141 131.173C332.733 130.767 333.182 130.163 333.486 129.359C333.799 128.547 333.956 127.549 333.956 126.365V125.566C333.956 124.677 333.867 123.899 333.689 123.231C333.52 122.554 333.266 121.992 332.928 121.544C332.59 121.087 332.167 120.744 331.659 120.516C331.16 120.288 330.585 120.173 329.934 120.173H325.823V116.735H329.934C331.186 116.735 332.332 116.951 333.372 117.382C334.421 117.805 335.326 118.414 336.087 119.209C336.857 119.996 337.449 120.93 337.863 122.013C338.286 123.087 338.498 124.28 338.498 125.591V126.365C338.498 127.667 338.286 128.86 337.863 129.943C337.449 131.025 336.861 131.96 336.1 132.747C335.339 133.533 334.438 134.142 333.397 134.574C332.365 134.997 331.232 135.208 329.997 135.208ZM328.449 116.735V135.208H323.996V116.735H328.449ZM365.485 131.782V135.208H355.639V131.782H365.485ZM357.225 116.735V135.208H352.772V116.735H357.225ZM364.216 124.068V127.38H355.639V124.068H364.216ZM365.523 116.735V120.173H355.639V116.735H365.523ZM381.472 116.735H385.101L389.224 129.587L393.347 116.735H396.976L390.696 135.208H387.752L381.472 116.735ZM379.264 116.735H383.02L383.718 130.894V135.208H379.264V116.735ZM395.428 116.735H399.196V135.208H394.73V130.894L395.428 116.735ZM416.998 116.735L420.398 124.754L423.811 116.735H428.607L422.669 128.572V135.208H418.14V128.572L412.189 116.735H416.998Z" fill="black"/>
</svg>
